<svg version="1.1" 
  xmlns="http://www.w3.org/2000/svg" 
  xmlns:xlink="http://www.w3.org/1999/xlink" id="snapshot-91090" width="250" height="250" viewBox="0 0 250 250">
  <desc>This image was made on Patterninja.com</desc>
  <defs>
    <!-- image 33562 -->
    <g id="transformed-33562" data-image="33562" transform="translate(-6.310166427367829, -0.4278779391243219) rotate(9, 29.31016642736783, 29.427877939124322)">
      <g>
        <svg version="1.1" width="58.62033285473566px" height="58.855755878248644px" viewBox="0 0 58.62033285473566 58.855755878248644">
          <g id="original-33562">
            <svg xmlns="http://www.w3.org/2000/svg" viewBox="0 -1 473.024 473" 
              xmlns:xlink="http://www.w3.org/1999/xlink" version="1.1" preserveAspectRatio="xMidYMid meet">
              <path d="M315.207.012c-13.254 0-23.996 10.746-23.996 24s10.742 23.996 23.996 23.996c13.254 0 24-10.742 24-23.996 0-13.254-10.746-24-24-24zm0 32a8 8 0 1 1 0-16.001 8 8 0 0 1 0 16zm0 0" fill="rgba(255, 240, 240, 1)" stroke="none"/>
              <path d="M243.21 40.012c-22.089 0-39.995 17.906-39.995 39.996 0 22.09 17.906 40 39.996 40 22.09 0 40-17.91 40-40-.027-22.078-17.922-39.973-40-39.996zm0 63.996c-13.253 0-24-10.746-24-24s10.747-24 24-24c13.255 0 24 10.746 24 24s-10.745 24-24 24zm0 0" fill="rgba(255, 240, 240, 1)" stroke="none"/>
              <path d="M131.219 56.008c-17.672 0-32 14.328-32 32s14.328 32 32 32 31.996-14.328 31.996-32-14.324-32-31.996-32zm0 48c-8.84 0-16-7.164-16-16s7.16-16 16-16c8.836 0 15.996 7.164 15.996 16s-7.164 16-15.996 16zm0 0" fill="rgba(255, 240, 240, 1)" stroke="none"/>
              <path d="M83.219.012c-13.254 0-23.996 10.746-23.996 24s10.742 23.996 23.996 23.996 24-10.742 24-23.996c0-13.254-10.746-24-24-24zm0 32a8 8 0 1 1 0-16.001 8 8 0 0 1 0 16zm0 0" fill="rgba(255, 240, 240, 1)" stroke="none"/>
              <path d="M277.418 257.008l15.137-5.149 51.742 152.07-15.14 5.15zm0 0" fill="rgba(255, 240, 240, 1)" stroke="none"/>
              <path d="M236.492 270.887l15.137-5.153 51.742 152.07-15.14 5.153zm0 0" fill="rgba(255, 240, 240, 1)" stroke="none"/>
              <path d="M318.34 243.055l15.14-5.149 51.723 152.07-15.137 5.149zm0 0" fill="rgba(255, 240, 240, 1)" stroke="none"/>
              <path d="M470.602 295.66L432.8 184.523c-8.012-23.562-33.606-36.168-57.168-28.156-.004.004-.008.004-.012.004l-21.68 7.375-1.398-4.125c-10.191-30.023-42.79-46.101-72.809-35.91a57.357 57.357 0 0 0-27.187 19.535 44.384 44.384 0 0 0-36.856 15.2 38.926 38.926 0 0 0-5.277-1.329 45.125 45.125 0 0 0-17.824.48c-22.906-21.929-59.246-21.136-81.176 1.77a57.405 57.405 0 0 0-15.082 29.82l-.754 4.297-22.558-3.945c-24.516-4.289-47.864 12.106-52.157 36.621v.008L.672 341.793c-4.254 24.516 12.137 47.848 36.637 52.16l22.55 3.942-.718 4.113c-10.946 2.554-17.746 13.5-15.192 24.445a20.363 20.363 0 0 0 16.344 15.426l170.39 29.797c1.16.207 2.333.312 3.505.312a20.367 20.367 0 0 0 18.449-11.933c3.558.812 7.277.605 10.726-.594l163.778-55.719c10.644-3.62 16.336-15.187 12.714-25.832a20.354 20.354 0 0 0-17.73-13.742l-1.344-3.941 21.668-7.375c23.547-8.043 36.137-33.625 28.153-57.192zM340.008 172.348l2.805 8.254-55.043 18.726-2.832-8.254zm-133.121 6.101a28.609 28.609 0 0 1 10.484-1.492 7.926 7.926 0 0 0 7.191-3.84l.028.008a28.958 28.958 0 0 1 30.285-13.457 8.001 8.001 0 0 0 8.29-3.61 40.926 40.926 0 0 1 21.644-17.156c18.734-6.347 39.343 1.422 49.222 18.559l-61.851 21.047a8 8 0 0 0-4.97 10.152l11.935 35.094c1.68 5.57-1.48 11.445-7.051 13.125a10.534 10.534 0 0 1-12.883-6.344l-4-11.695a7.997 7.997 0 0 0-9.984-5.32 7.999 7.999 0 0 0-5.153 10.48c1.774 5.543-1.285 11.473-6.828 13.242-5.402 1.727-11.203-1.137-13.121-6.476l-8-23.399a8.003 8.003 0 0 0-10.145-4.992l-14.628 4.977a29.007 29.007 0 0 1 19.535-28.903zm-4.48 49.953l-8.259 2.805-2.796-8.254 8.246-2.8zm-42.345-70.14l.024.008a40.959 40.959 0 0 1 24.09 13.597 7.93 7.93 0 0 0 1.406 1.2 45.34 45.34 0 0 0-12.855 21.601l-58.399-10.457c7.11-18.445 26.254-29.309 45.734-25.95zm-49.324 41.636l60.774 10.864a44.272 44.272 0 0 0 1.87 8.894l-64.14-11.199zM40.023 378.191c-15.789-2.804-26.332-17.847-23.593-33.644l20.23-115.633c2.754-15.805 17.797-26.387 33.602-23.633.015.004.031.004.047.008l22.543 3.938-1.497 8.59-16.464-2.88c-14.434-2.527-28.184 7.13-30.711 21.563-.004.012-.004.023-.008.035L26.078 339.996c-2.515 14.441 7.156 28.191 21.598 30.711l16.465 2.879-1.496 8.59zm48.57-144.613L66.876 357.793l-16.477-2.879c-5.726-1.004-9.558-6.46-8.554-12.187 0 0 .004 0 .004-.004L59.94 239.258c1.02-5.723 6.465-9.543 12.192-8.563zm149.903 218.793a4.362 4.362 0 0 1-5.05 3.54v.015L63.05 426.117a4.36 4.36 0 1 1 1.207-8.633c.101.012.199.032.297.051a8.002 8.002 0 0 0 9.257-6.504L106.5 224.152l72.715 12.72 55.75 163.921-6.52 37.27a7.983 7.983 0 0 0 1.336 5.976 8.006 8.006 0 0 0 5.176 3.277 4.364 4.364 0 0 1 3.54 5.055zm186.219-69.305a4.349 4.349 0 0 1-2.707 5.524c-.004 0-.004.004-.004.004l-163.777 55.722c-2.282.782-4.758-.433-5.54-2.714s.434-4.758 2.715-5.54a8 8 0 0 0 5-10.148v-.004L199.31 246.312l9.535-3.242c8.625 11.785 25.168 14.348 36.949 5.723a26.256 26.256 0 0 0 3.953-3.555 26.773 26.773 0 0 0 7.711 5.715c13.148 6.469 29.055 1.055 35.527-12.094a26.531 26.531 0 0 0 1.313-20.257l-1.406-4.122 55.05-18.734 61.102 179.598a8.005 8.005 0 0 0 10.148 5.008c.004-.004.008-.004.012-.008a4.362 4.362 0 0 1 5.512 2.722zM367.07 202.273l15.82-5.382c5.505-1.875 11.489 1.066 13.364 6.57 0 .004.004.012.004.02l33.832 99.43c1.867 5.507-1.078 11.487-6.582 13.366l-15.824 5.383zm70.242 135.403l-21.667 7.375-2.84-8.254 15.828-5.387c13.863-4.738 21.273-19.797 16.57-33.668l-33.84-99.437c-4.742-13.852-19.793-21.262-33.664-16.575l-15.82 5.383-2.8-8.246 21.726-7.344c15.203-5.171 31.718 2.957 36.894 18.16l37.774 111.114c5.148 15.195-2.977 31.691-18.16 36.879zm0 0" fill="rgba(255, 240, 240, 1)" stroke="none"/>
              <path d="M142.125 429.309l27.676-158.223 15.762 2.758-27.68 158.222zm0 0" fill="rgba(255, 240, 240, 1)" stroke="none"/>
              <path d="M184.793 436.8l15.516-94.1 15.78 2.6-15.519 94.102zm0 0" fill="rgba(255, 240, 240, 1)" stroke="none"/>
              <path d="M99.605 421.824l27.676-158.238 15.762 2.754-27.68 158.238zm0 0" fill="rgba(255, 240, 240, 1)" stroke="none"/>
            </svg>
          </g>
        </svg>
      </g>
    </g>
    <!-- /image 33562 -->

    <!-- image 15573 -->
    <g id="transformed-15573" data-image="15573" transform="translate(145.7900536509144, 82.30536871503028) rotate(6, 38.2099463490856, 34.694631284969724)">
      <g>
        <svg version="1.1" width="76.4198926981712px" height="69.38926256993945px" viewBox="0 0 76.4198926981712 69.38926256993945">
          <g id="original-15573">
            <svg xmlns="http://www.w3.org/2000/svg" viewBox="-48 0 480 480" 
              xmlns:xlink="http://www.w3.org/1999/xlink" version="1.1" preserveAspectRatio="xMidYMid meet">
              <path d="M132.746 147.465A151.227 151.227 0 0 1 120 86.527V48a8 8 0 0 0 8-8V8a8 8 0 0 0-8-8H56a8 8 0 0 0-8 8v32a8 8 0 0 0 8 8v38.527a151.289 151.289 0 0 1-12.742 60.938L20.8 198.809A246.416 246.416 0 0 0 0 298.199V472a8 8 0 0 0 8 8h160a8 8 0 0 0 8-8V298.2a246.35 246.35 0 0 0-20.8-99.391zM64 16h48v16H64zm96 448H16V298.2a230.59 230.59 0 0 1 19.457-92.993l22.457-51.344A167.166 167.166 0 0 0 72 86.527V48h32v38.527a167.105 167.105 0 0 0 14.09 67.336l22.453 51.344A230.59 230.59 0 0 1 160 298.199zm0 0" fill="rgba(255, 240, 240, 1)" stroke="none"/>
              <path d="M104.566 202.832l6.657 15.2A202.65 202.65 0 0 1 120 242.245a8.003 8.003 0 0 0 9.93 5.434c4.242-1.239 6.672-5.688 5.43-9.926a219.303 219.303 0 0 0-9.512-26.129l-6.657-15.2a7.99 7.99 0 0 0-6.449-4.968 8.01 8.01 0 0 0-7.465 3.258 8.01 8.01 0 0 0-.742 8.11zm0 0" fill="rgba(255, 240, 240, 1)" stroke="none"/>
              <path d="M94.25 179.2a7.996 7.996 0 0 0 7.336 4.8 7.848 7.848 0 0 0 3.2-.672c4.042-1.773 5.886-6.484 4.116-10.527l-5.476-12.543a8.003 8.003 0 0 0-10.434-3.906 7.995 7.995 0 0 0-4.222 10.304zm0 0" fill="rgba(255, 240, 240, 1)" stroke="none"/>
              <path d="M40 280a8 8 0 0 0-8 8v136a8 8 0 0 0 8 8h96a8 8 0 0 0 8-8V288a8 8 0 0 0-8-8zm88 136H48V296h80zm0 0" fill="rgba(255, 240, 240, 1)" stroke="none"/>
              <path d="M358.398 460.8A104.688 104.688 0 0 0 304 440.32V327.594c45.277-4.172 79.941-42.125 80-87.594 0-.379-.023-.762-.078-1.137l-4.211-29.488v-.055l-11.79-82.457A8.004 8.004 0 0 0 360 120H232a7.997 7.997 0 0 0-7.918 6.863l-16 112A7.907 7.907 0 0 0 208 240c.059 45.469 34.723 83.422 80 87.594v112.734a104.654 104.654 0 0 0-54.398 20.48l-6.403 4.801c-2.746 2.067-3.867 5.66-2.777 8.922s4.14 5.465 7.578 5.469h128a8 8 0 0 0 4.8-14.398zM238.938 136h114.125l9.601 67.2-15.398 1.722a135.202 135.202 0 0 1-52.137-4.348l-.953-.277a151.673 151.673 0 0 0-60.512-4.563l-3.32.41zM224 240.55l4-28 7.633-.933a135.28 135.28 0 0 1 54.039 4l.937.278a150.942 150.942 0 0 0 58.438 4.898l15.883-1.777L368 240.55c0 39.765-32.234 72-72 72s-72-32.235-72-72zM259.39 464a89.488 89.488 0 0 1 73.22 0zm0 0" fill="rgba(255, 240, 240, 1)" stroke="none"/>
            </svg>
          </g>
        </svg>
      </g>
    </g>
    <!-- /image 15573 -->

    <!-- image 59139 -->
    <g id="transformed-59139" data-image="59139" transform="translate(92.75845972281067, 198.75845972281067) rotate(353, 33.24154027718932, 33.24154027718932)">
      <g>
        <svg version="1.1" width="66.48308055437865px" height="66.48308055437865px" viewBox="0 0 66.48308055437865 66.48308055437865">
          <g id="original-59139">
            <svg xmlns="http://www.w3.org/2000/svg" viewBox="0 0 480 480" 
              xmlns:xlink="http://www.w3.org/1999/xlink" version="1.1" preserveAspectRatio="xMidYMid meet">
              <path d="M364.001 48c-32.223.054-59.392 24.033-63.448 56h-20.096l25.552-88h25.992V0h-32a8 8 0 0 0-7.68 5.768L263.801 104h-203.8a8 8 0 0 0-6.272 12.968l150.272 189.816V464h-64v16h144v-16h-64V306.784l110.976-140.176A62.605 62.605 0 0 0 364.001 176c35.346 0 64-28.654 64-64 0-35.346-28.654-64-64-64zM76.537 120h182.616l-16.256 56H120.873l-44.336-56zm135.464 171.112L133.537 192h104.72l-17.936 61.768 15.36 4.464L254.913 192h35.552l-78.464 99.112zM303.129 176h-43.576l16.264-56h71.648l-44.336 56zm60.872-16a47.027 47.027 0 0 1-23.104-5.928l29.376-37.104A8 8 0 0 0 364.001 104h-47.336c4.418-26.139 29.19-43.747 55.329-39.329 26.139 4.418 43.747 29.19 39.329 55.329-3.904 23.092-23.902 39.996-47.322 40z" fill="rgba(255, 240, 240, 1)" stroke="none"/>
            </svg>
          </g>
        </svg>
      </g>
    </g>
    <!-- /image 59139 -->
  </defs>
  <rect x="0" y="0" width="250" height="250" fill="rgba(255, 255, 255, 0)"></rect>
  <use xlink:href="#transformed-33562" transform="translate(-250, -250)"></use>
  <use xlink:href="#transformed-33562" transform="translate(0, -250)"></use>
  <use xlink:href="#transformed-33562" transform="translate(250, -250)"></use>
  <use xlink:href="#transformed-33562" transform="translate(-250, 0)"></use>
  <use xlink:href="#transformed-33562" transform="translate(0, 0)"></use>
  <use xlink:href="#transformed-33562" transform="translate(250, 0)"></use>
  <use xlink:href="#transformed-33562" transform="translate(-250, 250)"></use>
  <use xlink:href="#transformed-33562" transform="translate(0, 250)"></use>
  <use xlink:href="#transformed-33562" transform="translate(250, 250)"></use>
  <use xlink:href="#transformed-15573" transform="translate(-250, -250)"></use>
  <use xlink:href="#transformed-15573" transform="translate(0, -250)"></use>
  <use xlink:href="#transformed-15573" transform="translate(250, -250)"></use>
  <use xlink:href="#transformed-15573" transform="translate(-250, 0)"></use>
  <use xlink:href="#transformed-15573" transform="translate(0, 0)"></use>
  <use xlink:href="#transformed-15573" transform="translate(250, 0)"></use>
  <use xlink:href="#transformed-15573" transform="translate(-250, 250)"></use>
  <use xlink:href="#transformed-15573" transform="translate(0, 250)"></use>
  <use xlink:href="#transformed-15573" transform="translate(250, 250)"></use>
  <use xlink:href="#transformed-59139" transform="translate(-250, -250)"></use>
  <use xlink:href="#transformed-59139" transform="translate(0, -250)"></use>
  <use xlink:href="#transformed-59139" transform="translate(250, -250)"></use>
  <use xlink:href="#transformed-59139" transform="translate(-250, 0)"></use>
  <use xlink:href="#transformed-59139" transform="translate(0, 0)"></use>
  <use xlink:href="#transformed-59139" transform="translate(250, 0)"></use>
  <use xlink:href="#transformed-59139" transform="translate(-250, 250)"></use>
  <use xlink:href="#transformed-59139" transform="translate(0, 250)"></use>
  <use xlink:href="#transformed-59139" transform="translate(250, 250)"></use>
</svg>