<?xml version="1.0" standalone="no"?>
<!DOCTYPE svg PUBLIC "-//W3C//DTD SVG 20010904//EN"
 "http://www.w3.org/TR/2001/REC-SVG-20010904/DTD/svg10.dtd">
<svg version="1.0" xmlns="http://www.w3.org/2000/svg"
 width="625.000000pt" height="625.000000pt" viewBox="0 0 625.000000 625.000000"
 preserveAspectRatio="xMidYMid meet">
<metadata>
Created by potrace 1.11, written by Peter Selinger 2001-2013
</metadata>
<g transform="translate(0.000000,625.000000) scale(0.100000,-0.100000)"
fill="#000000" stroke="none">
<path d="M1926 6232 c-4 -3 -25 -7 -49 -8 -57 -3 -127 -13 -138 -20 -5 -3 -19
-7 -31 -9 -38 -8 -86 -64 -93 -109 -4 -22 -18 -64 -31 -92 -13 -28 -24 -63
-24 -77 0 -14 -5 -38 -12 -54 -6 -15 -13 -39 -15 -53 -9 -70 -15 -87 -32 -102
-13 -11 -19 -30 -19 -67 -1 -28 -8 -64 -15 -79 -8 -15 -17 -51 -21 -81 -4 -30
-16 -65 -27 -79 -15 -20 -18 -35 -14 -69 4 -31 0 -54 -14 -81 -11 -21 -20 -62
-22 -92 -1 -36 -8 -62 -20 -75 -12 -14 -18 -40 -20 -85 -1 -36 -10 -87 -20
-115 -9 -27 -20 -79 -23 -115 -8 -82 -17 -153 -22 -161 -16 -28 -24 -459 -11
-574 12 -97 14 -105 41 -225 40 -179 64 -245 134 -380 19 -36 43 -82 54 -103
39 -78 147 -207 297 -357 86 -85 170 -166 187 -180 42 -35 92 -70 99 -70 3 0
16 -9 28 -21 28 -26 169 -129 176 -129 3 0 20 -12 36 -26 17 -15 51 -40 77
-56 27 -16 48 -35 48 -41 0 -5 2 -8 5 -5 3 3 20 -9 38 -26 18 -17 43 -38 55
-46 13 -8 37 -27 55 -42 17 -16 35 -28 40 -28 22 0 134 -129 157 -181 l26 -56
-3 -459 c-1 -252 -4 -466 -6 -474 -12 -45 -13 -45 -135 -45 -64 0 -122 4 -128
7 -6 4 -22 5 -35 2 -32 -7 -50 -10 -174 -29 -11 -2 -20 -4 -20 -5 0 -1 -20 -3
-45 -5 -25 -2 -65 -7 -90 -10 -25 -4 -51 -7 -57 -8 -7 0 -13 -3 -13 -6 0 -3
-17 -7 -38 -7 -58 -2 -101 -11 -182 -39 -41 -14 -79 -27 -85 -28 -26 -7 -92
-29 -110 -37 -11 -5 -41 -16 -67 -26 -27 -9 -48 -21 -48 -25 0 -5 -6 -9 -13
-9 -7 0 -26 -13 -42 -30 -16 -16 -32 -30 -37 -30 -9 0 -34 -20 -102 -82 l-52
-47 2 -103 c1 -57 3 -108 3 -115 1 -6 14 -24 29 -40 15 -15 38 -42 50 -59 12
-17 38 -39 59 -49 20 -10 46 -26 57 -37 11 -10 45 -26 76 -34 30 -8 84 -28
120 -44 112 -51 397 -125 575 -150 204 -28 362 -34 910 -34 532 0 556 1 770
39 168 29 197 34 240 41 159 26 515 146 538 181 4 6 23 21 43 33 37 24 84 88
88 124 2 11 8 32 13 46 16 39 9 140 -12 185 -18 36 -33 52 -113 122 -14 12
-29 20 -33 17 -4 -2 -11 1 -16 8 -10 16 -66 48 -84 48 -7 0 -23 10 -34 23 -11
13 -36 29 -55 36 -19 7 -44 17 -55 21 -18 7 -87 27 -124 35 -9 3 -41 11 -71
20 -30 9 -64 17 -76 19 -11 2 -25 5 -30 8 -5 3 -38 9 -74 13 -36 4 -67 8 -70
10 -3 2 -39 6 -79 10 -41 4 -84 9 -95 11 -72 16 -179 26 -309 29 -72 2 -133 7
-139 13 -12 12 -17 173 -17 547 -1 241 1 281 14 372 6 38 4 43 -22 57 l-28 15
26 1 c16 0 34 10 47 28 56 73 71 96 67 102 -3 4 12 21 33 36 20 16 47 38 59
49 35 32 47 41 89 67 22 14 45 33 53 42 7 9 18 16 24 16 5 0 17 8 26 18 15 17
34 31 176 126 33 22 71 50 85 63 14 13 29 23 35 23 5 0 27 15 47 34 21 19 47
37 58 41 11 3 20 11 20 16 0 5 5 9 11 9 7 0 21 10 33 23 12 12 43 40 70 62 27
21 74 63 104 92 31 29 57 53 59 53 4 0 59 61 88 98 11 14 31 39 45 56 14 17
39 51 55 76 17 25 33 47 36 50 3 3 19 30 35 60 16 30 33 58 39 62 5 4 6 8 2 8
-5 0 0 12 10 28 19 27 91 204 98 238 2 11 4 19 5 19 2 0 10 37 12 63 1 12 6
22 10 22 4 0 7 3 6 8 -1 4 6 41 15 82 10 41 19 91 21 110 3 19 5 35 6 35 8 0
12 313 5 435 -10 180 -26 329 -45 400 -12 45 -21 96 -25 140 -2 31 -17 147
-20 160 -12 55 -19 78 -30 90 -7 8 -13 22 -13 30 -4 62 -14 113 -26 132 -8 13
-17 34 -20 48 -11 53 -16 74 -25 104 -9 26 -19 87 -23 134 -1 6 -5 12 -9 12
-6 0 -16 22 -24 58 -2 7 -11 36 -20 65 -9 28 -17 59 -19 67 -8 41 -21 77 -35
99 -8 13 -17 35 -19 48 -1 12 -11 43 -22 68 -11 25 -17 45 -14 45 2 0 0 9 -6
21 -11 20 -64 48 -105 55 -11 1 -38 8 -60 13 -43 11 -2488 14 -2499 3z"/>
</g>
</svg>
